<?xml version="1.0" encoding="UTF-8"?>
<!DOCTYPE svg PUBLIC "-//W3C//DTD SVG 1.1//EN" "http://www.w3.org/Graphics/SVG/1.1/DTD/svg11.dtd">
<!-- Creator: CorelDRAW 2020 (64-Bit) -->
<svg xmlns="http://www.w3.org/2000/svg" xml:space="preserve" width="1857px" height="1115px" version="1.1" style="shape-rendering:geometricPrecision; text-rendering:geometricPrecision; image-rendering:optimizeQuality; fill-rule:evenodd; clip-rule:evenodd"
viewBox="0 0 281.44 169.02"
 xmlns:xlink="http://www.w3.org/1999/xlink"
 xmlns:xodm="http://www.corel.com/coreldraw/odm/2003">
 <defs>
  <style type="text/css">
   <![CDATA[
    .str0 {stroke:#383526;stroke-width:1.52;stroke-linecap:round;stroke-linejoin:round;stroke-miterlimit:22.9256}
    .fil0 {fill:none}
    .fil1 {fill:#383526}
   ]]>
  </style>
 </defs>
 <g id="Capa_x0020_1">
  <metadata id="CorelCorpID_0Corel-Layer"/>
  <path class="fil0 str0" d="M127.04 0.76l140 0c7.5,0 13.64,6.14 13.64,13.64l0 140.22c0,7.5 -6.14,13.64 -13.64,13.64l-247.09 0c-7.5,0 -13.64,-6.14 -13.64,-13.64l0 -140.22c0,-7.5 6.14,-13.64 13.64,-13.64l15.92 0"/>
  <path class="fil1 str0" d="M19.95 0.76l-5.55 0c-7.5,0 -13.64,6.14 -13.64,13.64l0 140.22c0,7.5 6.14,13.64 13.64,13.64l5.55 0c-7.5,0 -13.64,-6.14 -13.64,-13.64l0 -140.22c0,-7.5 6.14,-13.64 13.64,-13.64z"/>
 </g>
</svg>
